# xmcd CD database file
#
# Track frame offsets:
#	150
#	4442
#	14765
#	30680
#	49821
#	67544
#	82501
#	100323
#	120462
#	142137
#	162293
#
# Disc length: 2434 seconds
#
# Revision: 0
# Processed by: cddbd v1.5.1PL0 Copyright (c) Steve Scherf et al.
# Submitted via: CDex 1.50beta10
#
DISCID=8609800b
DTITLE=Octopus　Daughter - Octopus　Daughter
DYEAR=2005
DGENRE=Pop
TTITLE0=プレリュード
TTITLE1=ブラックバード
TTITLE2=白夜
TTITLE3=武道
TTITLE4=テーブルの向こう
TTITLE5=マニキュア
TTITLE6=小さき者
TTITLE7=指輪
TTITLE8=薄荷
TTITLE9=物言わぬ鳥
TTITLE10=月の河
EXTD=YEAR: 2005
EXTT0=
EXTT1=
EXTT2=
EXTT3=
EXTT4=
EXTT5=
EXTT6=
EXTT7=
EXTT8=
EXTT9=
EXTT10=
PLAYORDER=
